<?xml version="1.0" encoding="utf-8"?>
<!-- Generator: Adobe Illustrator 25.2.0, SVG Export Plug-In . SVG Version: 6.00 Build 0)  -->
<svg version="1.1" id="Layer_1" xmlns="http://www.w3.org/2000/svg" xmlns:xlink="http://www.w3.org/1999/xlink" x="0px" y="0px"
	 viewBox="0 0 64.2 74.1" style="enable-background:new 0 0 64.2 74.1;" xml:space="preserve">
<style type="text/css">
	.st0{fill:#37BEBD;}
	.st1{fill:#072842;}
	.st2{fill:#FFFFFF;}
	.st3{fill:#F2F2F2;}
	.st4{fill:#BDBEBF;}
	.st5{fill:none;stroke:#BDBEBF;stroke-width:3.8655;stroke-linecap:round;stroke-linejoin:round;stroke-miterlimit:10;}
	.st6{fill:#042842;}
	.st7{fill:#F1F1F1;}
	.st8{fill:none;stroke:#000000;stroke-width:2.0616;stroke-linecap:round;stroke-linejoin:round;stroke-miterlimit:10;}
	.st9{fill:none;stroke:#000000;stroke-width:2.5;stroke-linecap:round;stroke-linejoin:round;stroke-miterlimit:10;}
	.st10{fill:#182A42;}
	.st11{fill:none;stroke:#182A42;stroke-width:2.5;stroke-linecap:round;stroke-linejoin:round;stroke-miterlimit:10;}
	.st12{fill:none;stroke:#EA9523;stroke-width:2.0616;stroke-linecap:round;stroke-linejoin:round;stroke-miterlimit:10;}
	.st13{fill:none;stroke:#182A42;stroke-width:2.0616;stroke-linecap:round;stroke-linejoin:round;stroke-miterlimit:10;}
	.st14{fill:none;stroke:#182A42;stroke-width:1.9439;stroke-linecap:round;stroke-linejoin:round;stroke-miterlimit:10;}
	.st15{fill:none;stroke:#182A42;stroke-width:1.5;stroke-linecap:round;stroke-linejoin:round;stroke-miterlimit:10;}
	.st16{fill:none;stroke:#182A42;stroke-width:1.7411;stroke-linecap:round;stroke-linejoin:round;stroke-miterlimit:10;}
	.st17{fill:#BDBCBE;}
	.st18{fill:#EA9523;}
	.st19{fill:#EE2327;}
	.st20{fill:none;}
	.st21{fill:#BEBDBE;}
	.st22{clip-path:url(#SVGID_2_);fill:#092943;}
	.st23{fill:#474D55;}
	.st24{fill:#E4A524;}
	.st25{fill:#EEB526;}
	.st26{enable-background:new    ;}
	.st27{fill:#010101;}
	.st28{fill:none;stroke:#EA9523;stroke-width:3;stroke-linecap:round;stroke-linejoin:round;stroke-miterlimit:10;}
	.st29{fill:#B3B3B3;}
	.st30{fill:#76B943;}
	.st31{fill:#BBCE32;}
	.st32{fill:#F1E406;}
	.st33{fill:#182A42;stroke:#182A42;stroke-linecap:round;stroke-linejoin:round;stroke-miterlimit:10;}
	.st34{fill:#9BB4C1;}
	.st35{fill:#59595B;}
	.st36{fill:none;stroke:#182A42;stroke-width:3;stroke-linecap:round;stroke-linejoin:round;stroke-miterlimit:10;}
	.st37{clip-path:url(#SVGID_4_);fill:#BDBEBF;}
	.st38{clip-path:url(#SVGID_4_);fill:#FFFFFF;}
	.st39{clip-path:url(#SVGID_6_);fill:#BDBEBF;}
	.st40{clip-path:url(#SVGID_6_);fill:#FFFFFF;}
	.st41{fill:#0F2941;}
	.st42{fill:#4FC2BC;}
	.st43{clip-path:url(#SVGID_8_);}
	.st44{clip-path:url(#SVGID_10_);}
	.st45{fill:#58BEBC;}
	.st46{fill:#172A41;}
	.st47{fill:#40B9BB;}
	.st48{fill:#1C2B40;}
	.st49{fill:#C8C6C7;}
	.st50{fill:#152A41;}
	.st51{fill:none;stroke:#222C41;stroke-width:6;stroke-linecap:round;stroke-linejoin:round;stroke-miterlimit:10;}
	.st52{fill:#E41318;}
</style>
<g>
	<path class="st47" d="M32.1,58.8c-0.1,0-0.2,0-0.3,0c-1-0.1-2-0.5-2.8-1.2L16.7,46.3c-0.9-0.8-1.4-1.8-1.4-3
		c-0.1-1.2,0.3-2.3,1.1-3.1c0.8-0.9,2-1.4,3.2-1.4c1.1,0,2.1,0.4,2.9,1.1l9.5,8.6l24.4-22.1c0.8-0.7,1.8-1.1,2.9-1.1
		c1.2,0,2.4,0.5,3.2,1.4c0.8,0.9,1.2,2,1.1,3.1c-0.1,1.2-0.6,2.2-1.4,3L35,57.6C34.2,58.4,33.2,58.8,32.1,58.8"/>
	<path class="st46" d="M63.8,29.6c0,0.1,0,0.2,0,0.3c-0.1,1.2-0.6,2.2-1.4,3l-7.3,6.6v25.4H9.2V31.6l22.9-20.8l14.4,13
		c0.8,0.7,1.9,1.1,2.9,1.1c1.2,0,2.4-0.5,3.2-1.4c0.8-0.9,1.2-2,1.1-3.1c-0.1-1.2-0.6-2.2-1.4-3L35.2,1.8c-0.8-0.7-1.7-1.2-2.8-1.2
		c-0.1,0-0.2,0-0.3,0c-1.1,0-2.1,0.4-2.9,1.1L1.9,26.4c-0.8,0.7-1.3,1.7-1.4,2.7l0,0.1c0,0.1,0,0.2,0,0.4v0.1v39.6
		c0,2.4,2,4.4,4.4,4.4h54.6c2.4,0,4.4-2,4.4-4.4L63.8,29.6L63.8,29.6z"/>
</g>
</svg>
