<svg xmlns="http://www.w3.org/2000/svg" width="120" height="24" viewBox="0 0 120 24">
    <g fill="none">
        <path fill="#082842" d="M17.813 6.5c.06.088.073.2.033.297L10.963 23.55c-.049.12-.166.197-.295.197H7.222c-.13 0-.246-.078-.295-.197L.024 6.813c-.04-.097-.03-.208.03-.296s.159-.14.266-.14h4.133c.135-.001.255.082.3.208L8.97 17.979l4.251-11.41c.045-.126.165-.21.3-.208h4.049c.098.007.188.058.242.14zm18.725 8.457v.065c0 5.034-4.093 8.973-9.312 8.973-5.218 0-9.222-3.911-9.222-8.91v-.063c0-5.05 4.08-9.01 9.291-9.01 5.21 0 9.255 3.932 9.255 8.945h-.012zm-14.06.065c0 2.805 2.109 5.005 4.801 5.005 2.765 0 4.77-2.08 4.77-4.941v-.064c0-2.874-2.078-5.038-4.835-5.038s-4.724 2.092-4.724 4.973l-.013.065zM54.574 6.36h-3.883c-.176 0-.32.141-.32.316v9.387c0 2.328-1.328 3.775-3.465 3.775-2.138 0-3.276-1.319-3.276-3.715V6.677c0-.175-.143-.316-.32-.316h-3.833c-.085 0-.167.033-.227.092-.06.06-.093.14-.093.224v10.581c0 4.136 2.429 6.71 6.3 6.71 1.916.035 3.74-.818 4.93-2.305v1.639c0 .175.144.317.32.317h3.883c.177 0 .32-.142.32-.317V6.677c0-.084-.034-.164-.094-.224s-.141-.092-.226-.092h-.016zm16.7 11.71c-.06-.057-.142-.089-.226-.088-.086.001-.168.036-.227.097-1.328 1.35-2.603 1.951-4.13 1.951-2.684 0-4.708-2.152-4.708-5.005v-.065c0-2.805 2-4.973 4.546-4.973 1.931 0 3.11.95 4.093 1.98.058.065.143.102.231.1.088-.001.171-.037.23-.1l2.43-2.553c.113-.122.113-.308 0-.43-1.919-2.051-4.048-2.965-6.947-2.965-2.418-.022-4.742.921-6.449 2.617-1.706 1.695-2.65 4-2.62 6.393v.064c-.024 2.373.92 4.656 2.617 6.332 1.697 1.676 4.006 2.604 6.403 2.573 3.692 0 5.668-1.627 7.11-3.206.117-.122.117-.315 0-.437l-2.353-2.284zM85.7 6.012c-1.912-.033-3.732.81-4.93 2.285V.316c0-.174-.144-.316-.32-.316H76.6c-.178 0-.32.142-.32.317v22.989c0 .175.142.317.32.317h3.85c.176 0 .32-.142.32-.317v-9.387c0-2.312 1.36-3.807 3.465-3.807 2.105 0 3.275 1.33 3.275 3.747v9.447c0 .175.143.317.32.317h3.85c.177 0 .32-.142.32-.317V12.693c0-4.12-2.413-6.681-6.3-6.681z"/>
        <path fill="#34BEBD" d="M110.102 19c-.327-.022-.633-.157-.864-.38l-3.834-3.34c-.518-.491-.54-1.287-.052-1.805.489-.518 1.316-.573 1.874-.125l2.958 2.578 7.565-6.598c.554-.473 1.4-.433 1.902.091.5.534.458 1.356-.095 1.84l-8.468 7.398c-.247.217-.57.339-.904.341h-.082z"/>
        <path fill="#082842" d="M119.983 10.149v.092c-.017.364-.187.706-.472.95l-2.434 2.078v7.99h-15.196V10.78l7.615-6.544 4.789 4.1c.383.33.922.441 1.415.292.494-.15.865-.537.975-1.017.11-.48-.057-.979-.44-1.31L110.498 1.4c-.247-.234-.574-.376-.922-.4h-.08c-.36 0-.707.126-.973.356l-9.06 7.798c-.26.223-.424.529-.463.859V22.626c0 .757.646 1.372 1.445 1.374h18.11c.799-.002 1.445-.617 1.445-1.374V10.149h-.017z"/>
    </g>
</svg>